HIERARCHY
ROOT Hips
{
	OFFSET -3.958830 18.904000 13.208200
	CHANNELS 6 Xposition Yposition Zposition Zrotation Yrotation Xrotation 
	JOINT LHipJoint
	{
		OFFSET 0.000000 0.000000 0.000000
		CHANNELS 3 Zrotation Yrotation Xrotation
		JOINT LeftUpLeg
		{
			OFFSET 1.800000 -1.400000 0.085000
			CHANNELS 3 Zrotation Yrotation Xrotation
			JOINT LeftLeg
			{
				OFFSET 2.215000 -6.000000 0.000000
				CHANNELS 3 Zrotation Yrotation Xrotation
				JOINT LeftFoot
				{
					OFFSET 2.500000 -6.900000 0.000000
					CHANNELS 3 Zrotation Yrotation Xrotation
					JOINT LeftToeBase
					{
						OFFSET 0.200000 -0.500000 1.950000
						CHANNELS 3 Zrotation Yrotation Xrotation
						End Site
						{
							OFFSET 0.000000 0.000000 0.000000
						}
					}
				}
			}
		}
	}
	JOINT RHipJoint
	{
		OFFSET 0.000000 0.000000 0.000000
		CHANNELS 3 Zrotation Yrotation Xrotation
		JOINT RightUpLeg
		{
			OFFSET -1.800000 -1.400000 0.085000
			CHANNELS 3 Zrotation Yrotation Xrotation
			JOINT RightLeg
			{
				OFFSET -2.215000 -6.000000 0.000000
				CHANNELS 3 Zrotation Yrotation Xrotation
				JOINT RightFoot
				{
					OFFSET -2.500000 -6.900000 0.000000
					CHANNELS 3 Zrotation Yrotation Xrotation
					JOINT RightToeBase
					{
						OFFSET -0.200000 -0.500000 1.950000
						CHANNELS 3 Zrotation Yrotation Xrotation
						End Site
						{
							OFFSET 0.000000 0.000000 0.000000
						}
					}
				}
			}
		}
	}
	JOINT LowerBack
	{
		OFFSET 0.000000 0.000000 0.000000
		CHANNELS 3 Zrotation Yrotation Xrotation
		JOINT Spine
		{
			OFFSET -0.087000 1.940000 -0.288900
			CHANNELS 3 Zrotation Yrotation Xrotation
			JOINT Spine1
			{
				OFFSET 0.000000 1.950000 0.060000
				CHANNELS 3 Zrotation Yrotation Xrotation
				JOINT Neck
				{
					OFFSET 0.000000 0.000000 0.000000
					CHANNELS 3 Zrotation Yrotation Xrotation
					JOINT Neck1
					{
						OFFSET 0.000000 1.600000 0.340000
						CHANNELS 3 Zrotation Yrotation Xrotation
						JOINT Head
						{
							OFFSET 0.000000 1.667000 -0.240000
							CHANNELS 3 Zrotation Yrotation Xrotation
							End Site
							{
								OFFSET 0.000000 0.000000 0.000000
							}
						}
					}
				}
				JOINT LeftShoulder
				{
					OFFSET 0.000000 0.000000 0.000000
					CHANNELS 3 Zrotation Yrotation Xrotation
					JOINT LeftArm
					{
						OFFSET 2.700000 1.550000 -0.730000
						CHANNELS 3 Zrotation Yrotation Xrotation
						JOINT LeftForeArm
						{
							OFFSET 5.450000 0.000000 0.000000
							CHANNELS 3 Zrotation Yrotation Xrotation
							JOINT LeftHand
							{
								OFFSET 3.450000 0.000000 0.000000
								CHANNELS 3 Zrotation Yrotation Xrotation
								JOINT LeftHandIndex1
								{
									OFFSET 0.750000 0.000000 0.000000
									CHANNELS 3 Zrotation Yrotation Xrotation
									End Site
									{
										OFFSET 0.000000 0.000000 0.000000
									}
								}
							}
						}
					}
				}
				JOINT RightShoulder
				{
					OFFSET 0.000000 0.000000 0.000000
					CHANNELS 3 Zrotation Yrotation Xrotation
					JOINT RightArm
					{
						OFFSET -2.700000 1.550000 -0.730000
						CHANNELS 3 Zrotation Yrotation Xrotation
						JOINT RightForeArm
						{
							OFFSET -5.450000 0.000000 0.000000
							CHANNELS 3 Zrotation Yrotation Xrotation
							JOINT RightHand
							{
								OFFSET -3.450000 0.000000 0.000000
								CHANNELS 3 Zrotation Yrotation Xrotation
								JOINT RightHandIndex1
								{
									OFFSET -0.750000 0.000000 0.000000
									CHANNELS 3 Zrotation Yrotation Xrotation
									End Site
									{
										OFFSET 0.000000 0.000000 0.000000
									}
								}
							}
						}
					}
				}
			}
		}
	}
}
MOTION
Frames: 14
Frame Time: 0.016667
-1.372160 17.136540 -2.986100 -8.356039 -23.199468 2.949012 -15.335356 11.350200 5.727301 23.363698 -3.030847 -34.595072 -28.915593 19.041788 31.077220 0.921171 9.812599 1.146486 0.475230 0.025360 0.419020 18.328504 -10.048072 2.402105 -0.295178 3.125169 -18.180368 4.859560 -4.562826 16.681089 -0.240840 -2.636969 3.673867 -0.182670 0.004400 0.267610 -3.431894 -0.844700 -8.862798 4.677880 0.606051 22.831901 -9.640686 2.865155 -3.584604 4.174292 -1.294419 -9.723067 -3.202146 4.951278 34.824036 5.251630 4.654330 -10.103580 -12.364562 8.492092 1.142845 -54.000822 12.562101 -15.630865 -46.805725 -45.234493 14.242029 -3.244266 3.448867 0.687290 -0.091380 0.147640 0.246460 3.744127 -5.364175 6.772885 62.118482 -16.228109 -17.863343 69.933639 35.473657 15.755085 2.098096 -1.921079 -0.010870 -0.075760 -0.242480 -0.226110 
-1.382150 17.142020 -2.977120 -8.365037 -23.884623 3.101652 -15.353980 11.307245 5.771860 23.729649 -2.903639 -34.619174 -29.639364 19.114280 30.453824 0.932842 9.834762 1.143846 0.474410 0.024380 0.412650 18.320465 -10.016450 2.382126 -0.612494 3.053163 -17.968875 5.266037 -4.587577 16.028347 -0.241055 -2.628049 3.682776 -0.182790 0.014940 0.270760 -3.408795 -0.856176 -8.872081 4.471865 0.728308 22.256291 -9.497353 2.875824 -3.330108 4.189630 -1.315223 -9.710643 -3.208865 5.343744 35.026015 5.408050 4.939140 -9.812640 -12.041168 8.719441 1.186204 -54.989982 12.477474 -15.929244 -45.363388 -45.341058 13.656256 -3.247245 3.437274 0.689100 -0.085630 0.147150 0.254000 3.420946 -5.583096 6.698088 62.418248 -15.956815 -17.775034 69.431985 35.150601 15.494775 2.091730 -1.917305 -0.013630 -0.071240 -0.241750 -0.223350 
-1.394960 17.154800 -2.960940 -8.687494 -25.373579 3.447294 -15.377866 11.253526 5.840884 24.577662 -2.499109 -34.451035 -30.698612 19.114417 29.155188 0.943058 9.839512 1.153227 0.458980 0.008360 0.393060 18.312423 -9.960987 2.367922 -0.832050 3.039345 -17.713168 5.752177 -4.619474 15.383533 -0.234216 -2.625122 3.701196 -0.189660 0.043340 0.265990 -3.391774 -0.882739 -8.900856 4.594880 0.821086 21.556096 -9.299910 2.886998 -3.491744 4.246711 -1.557569 -9.615727 -3.575380 6.132359 35.429527 5.618840 5.369640 -8.995880 -11.964763 9.386592 1.117105 -56.413222 12.634106 -16.290270 -42.810713 -45.524752 12.712265 -3.262693 3.400099 0.685270 -0.071020 0.134740 0.262950 3.252481 -6.036636 6.519412 62.373685 -15.553475 -17.355051 68.389516 34.917218 15.283938 2.089652 -1.899880 -0.025240 -0.053900 -0.232900 -0.217400 
-1.417300 17.166690 -2.940430 -8.923652 -27.275331 3.772990 -15.418711 11.228766 5.903175 25.449344 -1.996927 -34.040217 -31.859656 18.985645 27.425369 0.938798 9.805173 1.165448 0.434050 -0.022680 0.372450 18.285020 -9.896461 2.345500 -1.202477 3.011898 -17.382498 6.286244 -4.671924 14.793949 -0.221536 -2.638256 3.709285 -0.203280 0.067980 0.261500 -3.320081 -0.970996 -8.925344 4.283960 1.047831 20.741023 -8.814058 2.921915 -3.925467 4.356653 -1.863772 -9.485418 -4.055265 7.148340 35.979985 5.643880 6.040700 -7.924250 -11.869106 10.346269 0.945712 -57.994456 12.804134 -16.553296 -39.376868 -45.113240 11.259982 -3.290927 3.351304 0.681400 -0.054930 0.114760 0.257350 3.016712 -6.672371 6.310677 62.235802 -15.075173 -16.678481 67.473297 34.756259 15.287551 2.087426 -1.883068 -0.038680 -0.045750 -0.211380 -0.219230 
-1.448920 17.176520 -2.917390 -9.181097 -29.663035 4.187940 -15.450396 11.185615 5.974927 26.564923 -1.325519 -33.185408 -33.483295 18.786121 25.075638 0.952856 9.754555 1.185542 0.428720 -0.029100 0.363330 18.269994 -9.836838 2.319941 -1.380756 2.974754 -17.085623 6.396663 -4.599881 14.180310 -0.215747 -2.610985 3.721369 -0.204080 0.084520 0.254990 -3.296936 -1.022080 -8.944416 4.155745 1.058022 19.725159 -8.643789 2.716919 -4.554356 4.364735 -2.567482 -9.228221 -5.224241 8.685373 36.541448 6.140360 6.748120 -7.068510 -11.535395 11.842429 0.683307 -59.387364 13.103046 -16.606588 -35.537064 -44.093060 9.607617 -3.304266 3.300309 0.677870 -0.053490 0.106760 0.260500 2.712964 -7.611938 5.897531 62.020582 -14.174495 -15.483058 66.702035 34.036293 15.222977 2.099646 -1.875595 -0.044750 -0.035680 -0.205730 -0.213460 
-1.484820 17.179690 -2.900390 -9.102754 -31.677807 4.589351 -15.512643 11.153299 6.045251 27.395207 -0.892841 -32.603586 -34.970394 18.544569 23.009342 0.936999 9.750255 1.200463 0.419460 -0.050610 0.342240 18.232523 -9.748082 2.270636 -1.568411 2.946342 -17.034785 6.280485 -4.499275 13.778133 -0.194816 -2.593994 3.728356 -0.192020 0.131310 0.250550 -3.192162 -1.162064 -8.930201 3.272075 1.073220 18.429103 -7.925929 2.400986 -5.057868 4.296854 -3.143478 -8.731701 -6.136500 10.147212 36.484680 6.563280 7.333940 -5.726990 -11.744503 13.167674 0.254867 -60.086945 13.183367 -16.268947 -32.053412 -42.522647 8.020657 -3.349014 3.244944 0.674780 -0.029910 0.073610 0.272130 3.187091 -8.570080 5.286413 60.827159 -13.282734 -14.007388 66.153409 33.428203 15.279019 2.094342 -1.879074 -0.076310 -0.012570 -0.187460 -0.213330 
-1.509660 17.182390 -2.891110 -9.373135 -33.265920 4.887721 -15.570590 11.133601 6.095681 28.223893 -0.535493 -32.086516 -35.837413 18.400420 21.733902 0.909474 9.793798 1.195349 0.418470 -0.068530 0.346710 18.201989 -9.660099 2.232845 -1.361859 2.905924 -16.725303 6.131076 -4.431494 13.554028 -0.180631 -2.595361 3.731279 -0.176830 0.166280 0.243970 -3.101461 -1.308419 -8.917276 2.942132 1.031431 17.474699 -7.237866 2.234324 -5.224821 4.321869 -3.495074 -8.161655 -6.702546 11.138368 36.649924 6.437630 7.920690 -4.767430 -12.689920 14.028661 -0.328845 -60.369462 12.853233 -15.846457 -28.915149 -41.228742 6.684025 -3.400762 3.180800 0.674980 -0.006370 0.043160 0.273200 4.157316 -9.294576 4.738526 59.136731 -12.616157 -12.782926 66.240921 33.406821 15.691942 2.085400 -1.882417 -0.108630 0.012810 -0.172910 -0.225650 
-1.528620 17.184910 -2.880590 -9.826821 -34.527141 5.015128 -15.607848 11.160634 6.105112 28.832328 -0.244909 -31.387983 -36.151433 18.287999 20.994871 0.895326 9.805220 1.191466 0.431760 -0.050630 0.344440 18.179381 -9.608142 2.214526 -0.858730 2.800874 -16.177888 5.727584 -4.333333 13.435246 -0.186531 -2.594728 3.731101 -0.155750 0.185310 0.243520 -3.032243 -1.445628 -8.909592 2.898497 0.943851 17.055155 -6.386132 2.151157 -5.687429 4.214060 -3.867333 -7.540642 -7.355093 12.019603 37.227345 6.754920 8.240040 -4.392510 -13.564095 15.262855 -0.986926 -60.626109 12.576867 -15.293689 -26.846241 -40.045737 5.858479 -3.431234 3.135251 0.673530 0.001960 0.037170 0.283670 5.279163 -10.317943 4.092698 56.871407 -12.142256 -11.524105 66.462748 33.570656 16.293348 2.085866 -1.888968 -0.116880 0.030320 -0.171380 -0.221140 
-1.539780 17.183790 -2.870210 -10.277267 -35.535899 5.069904 -15.636424 11.217911 6.091415 29.218053 -0.048411 -30.655494 -36.251791 18.224253 20.556908 0.879498 9.812931 1.186837 0.446550 -0.031430 0.345000 18.157810 -9.565496 2.206367 -0.323321 2.721430 -15.720039 5.311265 -4.257150 13.548323 -0.187234 -2.601842 3.736589 -0.132950 0.197300 0.236300 -2.964481 -1.601608 -8.901009 2.991544 0.809937 16.857389 -5.531898 2.096792 -6.227473 4.115010 -4.295746 -6.931960 -8.166183 12.774154 37.844611 6.828620 8.485550 -3.990150 -14.474051 16.556038 -1.663820 -60.641517 12.395401 -14.695599 -25.562902 -39.277269 5.428421 -3.455826 3.096908 0.669470 0.010230 0.028280 0.292670 6.401231 -11.328387 3.463472 54.310052 -11.694343 -10.228446 67.229945 33.844255 17.161395 2.080327 -1.902800 -0.125630 0.046640 -0.173360 -0.220710 
-1.548710 17.177690 -2.857440 -10.512072 -36.204214 4.978051 -15.643060 11.317407 6.016187 29.018372 -0.086746 -30.047620 -35.791504 18.183581 20.717377 0.879089 9.771124 1.201045 0.471720 0.004190 0.349140 18.141496 -9.560762 2.214711 0.014333 2.592522 -15.276837 5.094488 -4.212841 13.505258 -0.197511 -2.615719 3.739084 -0.114190 0.203170 0.238110 -2.913623 -1.743612 -8.868466 3.059498 0.596321 16.602885 -4.798852 1.944400 -6.511348 3.974565 -4.689003 -6.488288 -8.988691 13.436327 38.686900 6.983520 8.592010 -3.384710 -14.890548 17.672394 -2.125872 -60.907269 12.099359 -14.146716 -24.793406 -38.628838 5.186554 -3.466948 3.081460 0.654880 0.014970 0.030560 0.310200 7.114876 -12.186401 2.929466 52.430890 -11.105196 -9.108427 68.030553 34.129498 18.021549 2.080752 -1.930395 -0.112940 0.050780 -0.189600 -0.208000 
-1.553100 17.170560 -2.847210 -10.668588 -36.705955 4.725249 -15.646935 11.451862 5.907111 28.579718 -0.158391 -29.274247 -35.146509 18.062935 20.889594 0.861057 9.708027 1.216448 0.475740 0.011430 0.350610 18.119739 -9.566936 2.230684 0.301464 2.412114 -14.697597 4.775862 -4.133679 13.169967 -0.204592 -2.612882 3.742951 -0.110170 0.208490 0.245250 -2.837130 -1.910996 -8.832982 2.980984 0.462564 16.459763 -3.926774 1.899436 -6.503318 3.856528 -4.949177 -6.282795 -9.681448 13.908586 39.960218 6.801580 8.728870 -2.890150 -14.875088 18.476641 -2.337632 -61.453095 11.946340 -13.725402 -25.356342 -37.844362 5.240858 -3.488509 3.056502 0.651880 0.021330 0.035640 0.311420 7.389977 -12.751277 2.562745 51.072870 -10.478206 -8.323550 68.857263 34.624237 18.935111 2.077471 -1.939463 -0.107800 0.056160 -0.187060 -0.203760 
-1.554860 17.160190 -2.838970 -10.945676 -37.085492 4.496145 -15.638191 11.558801 5.794857 28.218931 -0.223093 -28.584839 -34.345526 17.996603 21.298889 0.838347 9.659217 1.222084 0.488880 0.024680 0.358420 18.113586 -9.587667 2.251465 0.622300 2.247784 -14.124884 4.502996 -4.081199 12.940187 -0.216746 -2.631188 3.732368 -0.101270 0.204770 0.256290 -2.813370 -2.006387 -8.789804 3.211961 0.335319 16.223975 -3.351074 1.855778 -5.963041 3.755944 -5.007630 -6.217157 -10.000490 14.182375 41.303788 6.597470 8.839770 -2.266330 -14.830275 18.630279 -2.321348 -61.793681 11.642380 -13.417879 -26.457903 -37.667112 5.532628 -3.496194 3.067960 0.649040 0.025500 0.041370 0.313580 7.564263 -12.883463 2.330347 50.294607 -9.804194 -7.882664 69.310972 35.145530 19.565336 2.073194 -1.958394 -0.099280 0.049170 -0.189610 -0.203320 
-1.548840 17.159360 -2.838630 -11.421551 -37.281751 4.048743 -15.617356 11.694518 5.687868 27.947918 -0.269285 -27.702459 -33.423185 17.908462 21.802169 0.818542 9.589703 1.224064 0.507020 0.046850 0.387690 18.108540 -9.618637 2.292069 0.994273 2.051386 -13.283078 4.366001 -4.093661 12.815740 -0.250739 -2.653228 3.716040 -0.099700 0.168610 0.260310 -2.790800 -2.119760 -8.798919 3.633376 0.216307 16.709190 -2.983829 1.930392 -5.605614 3.815323 -4.872763 -6.469311 -10.130699 14.198440 43.855607 6.294500 8.971660 -2.318240 -15.237158 18.054939 -2.205791 -61.626168 11.267389 -13.223104 -27.235653 -37.957124 5.809394 -3.477518 3.069599 0.666990 0.005260 0.073170 0.302010 7.872936 -12.396700 2.428926 49.957197 -9.468134 -7.930908 69.482338 36.255193 20.262314 2.085959 -1.948775 -0.082780 0.041300 -0.198730 -0.211620 
-1.536290 17.161660 -2.842410 -11.879640 -37.146385 3.659126 -15.602297 11.813028 5.587304 27.659386 -0.332883 -27.108683 -32.400754 17.902063 22.602566 0.787684 9.547449 1.224010 0.518310 0.063070 0.416370 18.103093 -9.644210 2.334018 1.416309 1.844329 -12.462041 4.135120 -4.068514 12.529192 -0.275870 -2.662050 3.719322 -0.093090 0.138260 0.245690 -2.759082 -2.215612 -8.810157 3.950876 0.112494 17.149736 -2.489729 2.009077 -4.928204 3.924290 -4.529751 -6.888762 -9.812175 14.024869 46.652492 5.670860 9.273840 -2.228970 -15.172645 17.114215 -1.796560 -61.864483 10.980478 -13.250790 -28.622498 -38.615787 6.300607 -3.454368 3.054817 0.690150 -0.009450 0.097590 0.293840 7.654123 -11.628117 2.554615 50.085204 -8.579690 -7.981173 69.099816 36.745799 20.339964 2.091700 -1.923965 -0.087110 0.052510 -0.210270 -0.227610 
